<?xml version="1.0" encoding="UTF-8" standalone="no"?>
<svg
   width="280"
   height="349"
   version="1.1"
   viewBox="0 0 74.083 92.34"
   id="svg255"
   sodipodi:docname="cryptpad_dark.svg"
   inkscape:version="1.2.2 (b0a8486541, 2022-12-01, custom)"
   xmlns:inkscape="http://www.inkscape.org/namespaces/inkscape"
   xmlns:sodipodi="http://sodipodi.sourceforge.net/DTD/sodipodi-0.dtd"
   xmlns="http://www.w3.org/2000/svg"
   xmlns:svg="http://www.w3.org/2000/svg">
  <defs
     id="defs259" />
  <sodipodi:namedview
     id="namedview257"
     pagecolor="#ffffff"
     bordercolor="#000000"
     borderopacity="0.25"
     inkscape:showpageshadow="true"
     inkscape:pageopacity="0.0"
     inkscape:pagecheckerboard="false"
     inkscape:deskcolor="#d1d1d1"
     showgrid="false"
     inkscape:zoom="2.2578797"
     inkscape:cx="63.77665"
     inkscape:cy="175.16434"
     inkscape:window-width="1846"
     inkscape:window-height="1016"
     inkscape:window-x="0"
     inkscape:window-y="0"
     inkscape:window-maximized="1"
     inkscape:current-layer="svg255"
     showborder="true"
     shape-rendering="auto" />
  <path
     d="M 3.6,3.906 H 47.986 L 70.4,24.732 V 49.631 C 70.4,75.797 48.986,81.859 37.283,88.04 24.468,82.1455 4.489,75.711 4.166,49.631 Z"
     style="fill:none;stroke:#000000;stroke-width:5.2922;stroke-opacity:1"
     id="path241" />
  <path
     d="m 45.94,3.362 v 23.04 h 24.575"
     style="fill:none;stroke:#000000;stroke-width:5.292;stroke-opacity:1"
     id="path243" />
  <g
     transform="matrix(1.1107,0,0,1.1107,-106.454,-4.517)"
     style="fill:#000000;fill-opacity:1"
     id="g249">
    <path
       d="m 137.23,42.719 a 8.1185,8.1185 0 0 1 -8.1185,8.1185 8.1185,8.1185 0 0 1 -8.1185,-8.1185 8.1185,8.1185 0 0 1 8.1185,-8.1185 8.1185,8.1185 0 0 1 8.1185,8.1185 z"
       style="fill:#000000;fill-opacity:1"
       id="path245" />
    <path
       d="m 127,42.651 h 4.2265 l 4.2333,22.354 h -12.693 z"
       style="fill:#000000;fill-opacity:1"
       id="path247" />
  </g>
</svg>
