<?xml version="1.0" encoding="UTF-8" standalone="no"?>
<!-- Created with Inkscape (http://www.inkscape.org/) -->

<svg
   width="32"
   height="32"
   viewBox="0 0 32 32"
   version="1.1"
   id="svg1"
   inkscape:version="1.3.2 (091e20e, 2023-11-25)"
   sodipodi:docname="diagram.svg"
   xmlns:inkscape="http://www.inkscape.org/namespaces/inkscape"
   xmlns:sodipodi="http://sodipodi.sourceforge.net/DTD/sodipodi-0.dtd"
   xmlns="http://www.w3.org/2000/svg"
   xmlns:svg="http://www.w3.org/2000/svg">
  <sodipodi:namedview
     id="namedview1"
     pagecolor="#ffffff"
     bordercolor="#000000"
     borderopacity="0.25"
     inkscape:showpageshadow="2"
     inkscape:pageopacity="0.0"
     inkscape:pagecheckerboard="0"
     inkscape:deskcolor="#d1d1d1"
     inkscape:document-units="px"
     inkscape:zoom="25.125"
     inkscape:cx="16"
     inkscape:cy="16"
     inkscape:window-width="1866"
     inkscape:window-height="1016"
     inkscape:window-x="54"
     inkscape:window-y="27"
     inkscape:window-maximized="1"
     inkscape:current-layer="layer1" />
  <defs
     id="defs1" />
  <g
     inkscape:label="Layer 1"
     inkscape:groupmode="layer"
     id="layer1">
    <path
       d="m 28.499994,6.7857145 -5.57142,-5.571421 C 22.267845,0.55356459 20.946419,0 20.000004,0 H 3.999988 C 3.0535731,0 2.285712,0.76786114 2.285712,1.714276 V 30.285724 C 2.285712,31.232139 3.0535731,32 3.999988,32 h 24.000024 c 0.946415,0 1.714276,-0.767861 1.714276,-1.714276 V 9.714284 c 0,-0.9464148 -0.553565,-2.2678727 -1.214294,-2.9285695 z M 20.571408,2.4285871 c 0.303557,0.1071322 0.607147,0.2678465 0.73215,0.3928502 l 5.589293,5.5892924 c 0.125003,0.1250036 0.285718,0.4285609 0.39285,0.7321504 H 20.571408 Z M 27.428576,29.71432 H 4.571424 V 2.2857441 h 13.714304 v 7.428572 c 0,0.9464149 0.767861,1.7142759 1.714276,1.7142759 h 7.428572 z M 6.4642536,7.919908 v 7.510729 h 7.7938754 l 3.316824,4.16787 -2.139784,-0.243353 c -0.01491,-0.0019 -0.03214,-0.0031 -0.04963,-0.0031 -0.207933,0 -0.37935,0.156279 -0.403233,0.35775 l -1.92e-4,0.0019 c -0.0014,0.01263 -0.0022,0.02726 -0.0022,0.04208 0,0.207611 0.155796,0.378836 0.356882,0.403136 l 0.0019,1.93e-4 3.828055,0.440807 0.439297,-3.828056 c 0.0019,-0.01475 0.003,-0.03182 0.003,-0.04915 0,-0.20954 -0.158689,-0.381986 -0.362443,-0.403779 l -0.0018,-1.61e-4 c -0.01289,-0.0014 -0.0278,-0.0023 -0.04294,-0.0023 -0.209829,0 -0.382468,0.159107 -0.403843,0.363279 l -1.61e-4,0.0018 -0.243354,2.139783 -3.27703,-4.118884 V 7.919908 H 6.4642858 Z M 8.0316045,9.4872589 H 13.71019 V 13.863286 H 8.0316045 Z M 22.08418,20.501561 c -2.058108,0 -3.777591,1.528683 -4.077549,3.506627 l -2.349483,-0.02449 1.538262,-1.504608 c 0.07708,-0.07403 0.124971,-0.177943 0.124971,-0.293047 0,-0.112082 -0.04542,-0.213589 -0.118864,-0.287068 v 0 c -0.07354,-0.07377 -0.175243,-0.119379 -0.287583,-0.119379 -5.78e-4,0 -0.0012,0 -0.0018,0 h 9.6e-5 c -0.0019,-3.2e-5 -0.0041,-6.4e-5 -0.0063,-6.4e-5 -0.110089,0 -0.209957,0.04381 -0.283082,0.114943 l 9.6e-5,-9.6e-5 -2.748987,2.693894 2.693862,2.755094 c 0.0737,0.0748 0.176079,0.121115 0.289318,0.121115 0.110154,0 0.210086,-0.04387 0.283243,-0.115072 l -9.6e-5,9.7e-5 c 0.0748,-0.0737 0.121114,-0.176079 0.121114,-0.289318 0,-0.110154 -0.04387,-0.210086 -0.115071,-0.283243 l 9.6e-5,9.6e-5 -1.509172,-1.538262 2.372465,0.02295 c 0.309022,1.966694 2.02378,3.480624 4.074495,3.480624 2.26752,0 4.117342,-1.849855 4.117342,-4.117342 0,-2.267487 -1.849855,-4.123481 -4.117342,-4.123481 z m -0.06583,1.567351 c 0.02205,-5.46e-4 0.04362,0 0.06583,0 1.420458,0 2.549991,1.135672 2.549991,2.55613 0,1.420458 -1.129533,2.55613 -2.549991,2.55613 -1.420458,0 -2.55613,-1.135672 -2.55613,-2.55613 0,-1.398247 1.101022,-2.521383 2.490302,-2.55613 z M 9.7382626,16.316848 6.9938718,19.018393 c -0.076629,0.07396 -0.1242001,0.177589 -0.1242001,0.292307 0,0.111697 0.045096,0.212882 0.1180929,0.286297 l -3.21e-5,-3.2e-5 c 0.073768,0.07525 0.1764644,0.121885 0.2900573,0.121885 0.1135929,0 0.2162894,-0.04664 0.289993,-0.121821 l 6.43e-5,-6.4e-5 1.5290687,-1.503066 -0.0306,3.782156 h -2.60203 v 6.148482 h 6.5051072 v -6.148482 h -2.647962 l 0.02909,-3.77907 1.515311,1.536751 c 0.07361,0.07431 0.175693,0.120343 0.288547,0.120343 0.110539,0 0.210761,-0.04416 0.283983,-0.115811 l -6.5e-5,6.4e-5 c 0.07663,-0.07396 0.1242,-0.177589 0.1242,-0.292307 0,-0.111696 -0.0451,-0.212882 -0.118093,-0.286297 l 3.3e-5,3.3e-5 -2.7061094,-2.742848 z M 8.0316045,23.443374 H 11.40201 v 3.01378 H 8.0316045 Z"
       id="path35"
       style="stroke-width:0.0321429" />
  </g>
</svg>
